<?xml version="1.0" encoding="UTF-8" standalone="no"?>
<!DOCTYPE svg PUBLIC "-//W3C//DTD SVG 1.1//EN" "http://www.w3.org/Graphics/SVG/1.1/DTD/svg11.dtd">
<svg width="100%" height="100%" viewBox="0 0 2670 1052" version="1.1" xmlns="http://www.w3.org/2000/svg" xmlns:xlink="http://www.w3.org/1999/xlink" xml:space="preserve" xmlns:serif="http://www.serif.com/" style="fill-rule:evenodd;clip-rule:evenodd;stroke-linecap:round;stroke-linejoin:round;stroke-miterlimit:1.5;">
    <g id="Artboard1" transform="matrix(2.646184,0,0,3.076023,-1293.984143,-5149.263158)">
        <path d="M1498,1674L1498,2016L510.141,2016C498.465,2016 489,2007.858 489,1997.813L489,1674L1498,1674Z" style="fill:none;"/>
        <clipPath id="_clip1">
            <path d="M1498,1674L1498,2016L510.141,2016C498.465,2016 489,2007.858 489,1997.813L489,1674L1498,1674Z"/>
        </clipPath>
        <g clip-path="url(#_clip1)">
            <g id="flower" transform="matrix(0.244577,-0.137196,0.159482,0.2104,757.677864,2153.487095)">
                <g>
                    <g transform="matrix(1,0,-0,1,-489,-1674)">
                        <path d="M1912.289,868.429C1912.289,868.429 1937.812,794.783 2000.937,722.767C2018.519,702.708 2093.416,652.098 2171,647C2171,647 2213.843,638.254 2238,649C2262.157,659.746 2248.432,680.477 2284,688C2284,688 2206.124,742.218 2183,781C2167.967,806.213 2125.593,831.058 2098.014,830.506C2012.039,828.784 1962.47,869.853 1959.507,870.883" style="fill:none;stroke:black;stroke-width:8.09px;"/>
                    </g>
                    <g transform="matrix(1,0,0,1,-489,-1674)">
                        <path d="M1863,625C1863,625 1849.263,583.842 1781,568C1736.063,557.571 1762.264,577.151 1718,584C1666.029,592.042 1732,630 1732,630C1732,630 1772.234,651.359 1812,729C1841.222,786.053 1840.257,770.463 1840.257,770.463C1840.257,770.463 1862.422,624.697 1863,625Z" style="fill:none;stroke:black;stroke-width:8.09px;"/>
                    </g>
                    <g transform="matrix(1,0,0,1,-489,-1674)">
                        <path d="M1699.921,591.813C1699.921,591.813 1688.705,623.258 1709,638C1729.295,652.742 1759,667 1759,667C1759,667 1755.693,669.214 1758.029,651.852" style="fill:none;stroke:black;stroke-width:8.09px;"/>
                    </g>
                    <g transform="matrix(1,0,0,1,-489,-1674)">
                        <path d="M1844,712C1844,712 1829.45,660.685 1804,644" style="fill:none;stroke:black;stroke-width:4.85px;"/>
                    </g>
                    <g transform="matrix(1,0,0,1,-489,-1674)">
                        <path d="M1849,672C1849,672 1837.706,645.542 1829,637" style="fill:none;stroke:black;stroke-width:4.85px;"/>
                    </g>
                    <g transform="matrix(1,0,0,1,-489,-1674)">
                        <path d="M1786.418,1097.754C1786.418,1097.754 1808.037,1100.281 1838,1074C1858.582,1055.948 1903.425,966.043 1983.437,950.484L1995.059,950.942C1995.059,950.942 1995.509,912.927 1916.233,871.354C1916.233,871.354 1891.899,851.459 1835.008,923.292C1835.008,923.292 1840.005,969.83 1820.634,1008.353C1801.263,1046.876 1783.511,1066.147 1786.418,1097.754Z" style="fill:none;stroke:black;stroke-width:8.09px;"/>
                    </g>
                    <g transform="matrix(1,0,0,1,-489,-1674)">
                        <path d="M1832.719,907.616C1824.471,870.448 1800.428,829.811 1751,784C1726.225,761.038 1706.472,744.462 1687.046,731.366" style="fill:none;stroke:black;stroke-width:8.09px;"/>
                    </g>
                    <g transform="matrix(1,0,0,1,-489,-1674)">
                        <path d="M1687.046,731.366C1670.954,720.518 1655.086,712.059 1636.772,704.337" style="fill:none;stroke:black;stroke-width:8.09px;"/>
                    </g>
                    <g transform="matrix(1,0,0,1,-489,-1674)">
                        <path d="M1636.772,704.337C1621.84,698.042 1605.283,692.236 1585.653,686.025" style="fill:none;stroke:black;stroke-width:8.09px;"/>
                    </g>
                    <g transform="matrix(1,0,0,1,-489,-1674)">
                        <path d="M1585.653,686.025C1579.326,684.023 1572.68,681.979 1565.666,679.863C1565.666,679.863 1474.335,647.5 1597.276,631.142" style="fill:none;stroke:black;stroke-width:8.09px;"/>
                    </g>
                    <g transform="matrix(1,0,0,1,-489,-1674)">
                        <path d="M1597.276,631.142L1598.952,630.921C1613.889,628.982 1627.948,628.279 1641.174,628.626" style="fill:none;stroke:black;stroke-width:8.09px;"/>
                    </g>
                    <g transform="matrix(1,0,0,1,-489,-1674)">
                        <path d="M1641.174,628.626C1658.042,629.068 1673.554,631.22 1687.804,634.694" style="fill:none;stroke:black;stroke-width:8.09px;"/>
                    </g>
                    <g transform="matrix(1,0,0,1,-489,-1674)">
                        <path d="M1687.804,634.694C1801.809,662.492 1838.959,776.037 1838.959,776.037C1838.959,776.037 1835.154,849.722 1835.971,909.737" style="fill:none;stroke:black;stroke-width:8.09px;"/>
                    </g>
                    <g transform="matrix(1,0,0,1,-489,-1674)">
                        <path d="M1786,1096C1786,1096 1740.903,1135.698 1695.002,1188.206C1665.783,1221.632 1629.241,1257.401 1606.273,1296.178C1578.35,1343.321 1535.759,1426.912 1443.535,1539.983C1443.535,1539.983 1427.376,1540.91 1399.582,1515.136C1399.582,1515.136 1503.32,1433.803 1557.235,1327.772C1557.235,1327.772 1587.43,1276.558 1587.499,1229.276C1587.573,1178.118 1603.782,1084.37 1600.487,1056.766C1595.624,1016.028 1599.104,1006.762 1599,1007C1598.896,1007.238 1630,1006 1630,1006C1630,1006 1612.351,1153.097 1614.297,1240.198C1614.297,1240.198 1736.249,1128.687 1762,1070" style="fill:none;stroke:black;stroke-width:5.39px;"/>
                    </g>
                    <g>
                        <g>
                            <g transform="matrix(1,-0,0,1,-489,-1674)">
                                <path d="M1647.944,512.182C1647.944,512.182 1636.781,498.288 1631,517C1626.521,531.496 1609.777,587.148 1602.459,611.489L1599,623L1597.276,631.142" style="fill:none;stroke:black;stroke-width:8.09px;"/>
                            </g>
                            <g transform="matrix(1,-0,0,1,-489,-1674)">
                                <path d="M1585.653,686.025L1581,708C1581,708 1552.399,895.18 1587,997C1587,997 1592.206,1016.151 1619,1010" style="fill:none;stroke:black;stroke-width:8.09px;"/>
                            </g>
                            <g transform="matrix(1,-0,0,1,-489,-1674)">
                                <path d="M1619,1010C1619,1010 1655.038,1024.946 1676,861C1681.765,815.912 1685.305,771.983 1687.046,731.366" style="fill:none;stroke:black;stroke-width:8.09px;"/>
                            </g>
                            <g transform="matrix(1,-0,0,1,-489,-1674)">
                                <path d="M1687.804,634.694C1685.847,572.81 1678.948,528.835 1669.857,516.623C1654.878,496.5 1647.944,512.182 1647.944,512.182" style="fill:none;stroke:black;stroke-width:8.09px;"/>
                            </g>
                            <g transform="matrix(1,-0,0,1,-489,-1674)">
                                <path d="M1647.944,512.182L1641.174,628.626" style="fill:none;stroke:black;stroke-width:8.09px;"/>
                            </g>
                            <g transform="matrix(1,-0,0,1,-489,-1674)">
                                <path d="M1636.772,704.337L1619,1010" style="fill:none;stroke:black;stroke-width:8.09px;"/>
                            </g>
                        </g>
                    </g>
                    <g transform="matrix(1,0,0,1,-489,-1674)">
                        <path d="M1912,866C1863.64,875.828 1837.765,922.951 1837.765,922.951C1837.765,922.951 1825.665,750.411 1866,615C1866,615 1890.094,501.068 1826,471C1801.833,459.662 1849,462 1849,462C1849,462 1884.962,473.239 1916,505C1947.038,536.761 1942.002,572.718 1963,601C1983.998,629.282 1981.721,703.608 1972.428,752.607C1963.134,801.606 1912,866 1912,866Z" style="fill:none;stroke:black;stroke-width:5.39px;"/>
                    </g>
                    <g transform="matrix(1,0,0,1,-489,-1674)">
                        <path d="M1819.118,465.488C1819.118,465.488 1850.209,496.995 1866,615C1866.32,617.394 1875.286,545.581 1867.472,520.662C1860.155,497.328 1842.936,480.045 1819.118,465.488" style="fill:none;stroke:black;stroke-width:8.09px;"/>
                    </g>
                    <g transform="matrix(1,0,0,1,-489,-1674)">
                        <path d="M1959,872C1994.509,886.365 1989.831,881.952 2004.678,888.681C2025.477,898.108 2030.263,879.756 2083.409,927.81C2088.934,932.806 2106.274,962.564 2114,976C2126.518,997.77 2121.532,1044.52 2125,1060C2128.753,1076.748 2147,1049 2147,1049C2147,1049 2173.82,1006.339 2177,967C2179.215,939.602 2166.243,881.879 2141,862C2137.806,859.485 2112.665,833.948 2054,841C1995.335,848.052 1959.122,872.301 1959,872Z" style="fill:none;stroke:black;stroke-width:8.09px;"/>
                    </g>
                    <g transform="matrix(1,0,0,1,-489,-1674)">
                        <path d="M1912.289,868.429C1912.289,868.429 1937.812,794.783 2000.937,722.767C2018.519,702.708 2093.416,652.098 2171,647C2171,647 2213.843,638.254 2238,649C2262.157,659.746 2248.432,680.477 2284,688C2284,688 2206.124,742.218 2183,781C2167.967,806.213 2125.593,831.058 2098.014,830.506C2012.039,828.784 1962.47,869.853 1959.507,870.883" style="fill:none;stroke:black;stroke-width:8.09px;"/>
                    </g>
                    <g transform="matrix(1,0,0,1,-489,-1674)">
                        <path d="M2228.741,733.386C2228.741,733.386 2260.696,731.576 2275,748C2275,748 2289.039,767.131 2304,704C2304,704 2302.531,684.503 2284.427,689.223" style="fill:none;stroke:black;stroke-width:8.09px;"/>
                    </g>
                    <g transform="matrix(1,-0,0,1,-489,-1674)">
                        <path d="M1921.027,872.154C1921.027,872.154 1936.274,881.849 1947,889C2023.42,939.951 1988.703,1002.302 2033.44,1099.255C2047.379,1129.462 2036.479,1150.855 2062,1094C2085.238,1042.231 2090.072,950.571 2078,939C2070.161,931.486 2073.624,883.679 2004.159,891.654C2004.159,891.654 1977.019,867.788 1921.027,872.154Z" style="fill:none;stroke:black;stroke-width:8.09px;"/>
                    </g>
                    <g transform="matrix(1,0,0,1,-489,-1674)">
                        <path d="M1730.437,765.484C1730.437,765.484 1833.01,844.551 1834.503,921.48C1835.358,965.492 1817.695,1017.961 1805.859,1035.046C1791.859,1055.253 1785,1098 1785,1098C1785,1098 1776.015,1072.088 1759,1077C1759,1077 1745.901,1024.916 1771,957C1806.407,861.189 1730.437,765.484 1730.437,765.484Z" style="fill:none;stroke:black;stroke-width:8.09px;"/>
                    </g>
                    <g transform="matrix(1,0,0,1,-489,-1674)">
                        <path d="M2044,638C2044,638 2050.667,605 2051,595C2051.197,589.097 2043,581.833 2046,578C2049,574.167 2061.833,570.5 2069,572C2076.167,573.5 2085.833,583 2089,587C2090.874,589.367 2089.048,593.287 2086.841,595.346C2084.341,597.68 2077.049,597.094 2074,601C2068.667,607.833 2056,637 2056,637C2056,637 2045.613,634.325 2044,638C2025.452,680.255 1942.843,829.399 1903,867L1917,869C1917,869 2028.879,692.769 2056,637" style="fill:none;stroke:black;stroke-width:8.09px;"/>
                    </g>
                    <g transform="matrix(1,0,0,1,-489,-1674)">
                        <path d="M2166,690C2166,690 2188.114,666.719 2253,668" style="fill:none;stroke:black;stroke-width:5.39px;"/>
                    </g>
                    <g transform="matrix(1,0,0,1,-489,-1674)">
                        <path d="M2169,715C2200,703.667 2199.165,686.361 2262,681" style="fill:none;stroke:black;stroke-width:5.39px;"/>
                    </g>
                    <g transform="matrix(1,0,0,1,-489,-1674)">
                        <path d="M1880,878C1880,878 1930.9,773.614 1917,616" style="fill:none;stroke:black;stroke-width:5.39px;"/>
                    </g>
                    <g transform="matrix(1,0,0,1,-489,-1674)">
                        <path d="M1866,891C1866,891 1865.589,859.474 1874,833C1882.411,806.526 1884.173,787.726 1883,774" style="fill:none;stroke:black;stroke-width:5.39px;"/>
                    </g>
                    <g transform="matrix(1,0,0,1,-489,-1674)">
                        <path d="M1900,869C1900,869 1935.479,801.371 1940,749" style="fill:none;stroke:black;stroke-width:5.39px;"/>
                    </g>
                    <g transform="matrix(1,0,0,1,-489,-1674)">
                        <path d="M1930,870C1930,870 1976.102,822.997 1986,821" style="fill:none;stroke:black;stroke-width:5.12px;"/>
                    </g>
                    <g transform="matrix(1,0,0,1,-489,-1674)">
                        <path d="M1945,872C1945,872 1984.043,825.586 2022,813" style="fill:none;stroke:black;stroke-width:5.12px;"/>
                    </g>
                    <g transform="matrix(1,0,0,1,-489,-1674)">
                        <path d="M1970,877C1970,877 2001.539,857.718 2080,876" style="fill:none;stroke:black;stroke-width:5.39px;"/>
                    </g>
                    <g transform="matrix(1,-0,0,1,-481.750863,-1676.020749)">
                        <path d="M1908.701,942.92C1908.701,942.92 1943.397,914.053 1962.204,913.71" style="fill:none;stroke:black;stroke-width:5.12px;"/>
                    </g>
                    <g transform="matrix(1,0,0,1,-489,-1674)">
                        <path d="M2000.119,887.177C1994.413,886.826 2017.475,875.11 2038,1003" style="fill:none;stroke:black;stroke-width:5.39px;"/>
                    </g>
                    <g transform="matrix(1,0,0,1,-489,-1674)">
                        <path d="M2019,891C2019,891 2041.99,916.688 2042,941" style="fill:none;stroke:black;stroke-width:5.12px;"/>
                    </g>
                    <g transform="matrix(1,0,0,1,-489,-1674)">
                        <path d="M1785,1094C1785,1094 1814.401,1070.446 1836,1038" style="fill:none;stroke:black;stroke-width:4.58px;"/>
                    </g>
                    <g transform="matrix(1,0,0,1,-489,-1674)">
                        <path d="M1768,1076C1768,1076 1765.95,1036.043 1777,1004" style="fill:none;stroke:black;stroke-width:4.58px;"/>
                    </g>
                    <g transform="matrix(1,0,0,1,-489,-1674)">
                        <path d="M1605,1006C1605,1006 1580.707,926.318 1595,826" style="fill:none;stroke:black;stroke-width:5.39px;"/>
                    </g>
                    <g transform="matrix(1,0,0,1,-489,-1674)">
                        <path d="M1626.516,1007.437C1626.516,1007.437 1639.317,967.132 1650,905" style="fill:none;stroke:black;stroke-width:4.85px;"/>
                    </g>
                    <g transform="matrix(1,0,0,1,-489,-1674)">
                        <path d="M1832.765,879.208C1832.765,879.208 1828.796,799.646 1789,745" style="fill:none;stroke:black;stroke-width:5.39px;"/>
                    </g>
                    <g transform="matrix(1,0,0,1,-489,-1674)">
                        <path d="M1832,890C1832,890 1809.406,740.753 1715,706" style="fill:none;stroke:black;stroke-width:5.39px;"/>
                    </g>
                </g>
            </g>
            <g id="pestils" transform="matrix(0.254317,-0.123396,0.14344,0.218779,728.341777,2142.575505)">
                <g>
                    <path d="M1455,-1049C1457.823,-1052.532 1459.883,-1052.219 1468,-1040C1477.297,-1026.005 1478.605,-995.501 1473,-986C1467.154,-976.09 1462.345,-982.597 1463,-989C1463.655,-995.403 1461.886,-1013.844 1458,-1024C1452.927,-1037.259 1452.519,-1045.895 1455,-1049Z" style="fill:none;stroke:black;stroke-width:5.39px;"/>
                    <path d="M1467.997,-980.218C1467.997,-980.218 1465.477,-842.836 1404.839,-796.583" style="fill:none;stroke:black;stroke-width:8.09px;"/>
                    <g transform="matrix(1,0,0,1,-488.960418,-1666.814524)">
                        <path d="M2102,679C2111.06,680.029 2102.407,691.352 2097,704C2091.472,716.932 2087.464,728.03 2083,732C2079.761,734.881 2078.667,738.5 2068,731C2066.166,729.71 2071,719 2071,719C2071,719 2079,703.667 2082,700C2084.744,696.646 2096.22,678.344 2102,679Z" style="fill:none;stroke:black;stroke-width:5.39px;"/>
                    </g>
                    <g transform="matrix(1,0,0,1,-488.960418,-1666.814524)">
                        <path d="M2004,654C1997.333,655.667 1994.833,648.833 1996,644C1996.92,640.187 2004.949,630.875 2007,627C2010,621.333 2011.5,619 2015,610C2016.378,606.458 2022.714,593.539 2028,598C2033.442,602.592 2027.333,614.833 2026,619C2024.667,623.167 2020.859,629.567 2019,634C2016.833,639.167 2007.907,653.023 2004,654Z" style="fill:none;stroke:black;stroke-width:5.39px;"/>
                    </g>
                    <g transform="matrix(1,0,0,1,-488.960418,-1666.814524)">
                        <path d="M2085,622C2085,622 2102.298,599.8 2107.446,608.005C2110.816,613.377 2099.879,622.919 2098,628C2095.186,635.608 2081.333,654 2078,655C2074.667,656 2070.996,659.531 2070,652C2069.544,648.55 2078.227,628.378 2085,622Z" style="fill:none;stroke:black;stroke-width:5.39px;"/>
                    </g>
                    <path d="M1582.853,-1010.442C1582.853,-1010.442 1424.057,-821.192 1427,-809" style="fill:none;stroke:black;stroke-width:8.09px;"/>
                    <path d="M1512.072,-1016.109C1512.072,-1016.109 1490.305,-899.578 1418,-807" style="fill:none;stroke:black;stroke-width:8.09px;"/>
                    <path d="M1582.192,-936.251C1582.192,-936.251 1427.048,-848.293 1426.148,-806.971" style="fill:none;stroke:black;stroke-width:8.09px;"/>
                </g>
            </g>
            <g id="lilies" transform="matrix(0.528673,0,0,0.454797,515.515229,1814.537354)">
                <g>
                    <path d="M298.304,53.283C302.711,49.955 339.362,22.28 359.5,21.324C384.605,20.134 359.391,87.145 283.627,109.904C264.448,115.665 241.746,116.56 233.593,123.606C211.439,142.751 210.996,141.871 188.452,160.447C170.282,175.419 150.703,185.639 150.969,188.393C151.034,189.064 191.112,206.683 194.623,208.226C233.8,225.448 270.602,213.81 270.412,210.496C268.574,178.573 351.57,124.418 358.5,123.503C379.415,120.741 340.8,152.14 338.94,153.949C288.988,202.528 288.379,201.851 284.448,206.455C271.057,222.137 309.51,235.976 373.59,200.674C386.569,193.524 382.757,188.763 389.688,180.663C408.218,159.008 414.403,151.517 414.93,150.839C431.621,129.373 483.753,85.438 504.252,72.106C542.185,47.436 577.752,18.386 583.609,27.407C595.661,45.972 553.124,78.152 547.85,82.852C503.973,121.949 449.349,154.131 441.8,158.976C437.536,162.027 401.403,183.404 395.11,204.369C386.708,232.36 467.004,220.316 471.685,207.579C486.152,168.214 536.635,139.922 551.402,135.193C575.75,127.394 520.553,170.228 506.575,185.564C495.453,197.765 472.268,220.107 493.529,222.075C519.961,224.522 537.45,213.089 557.567,202.644C571.521,195.399 567.485,191.407 577.772,179.735C612.549,140.272 646.535,136.965 653.485,136.288C698.861,131.872 655.645,172.535 642.466,176.372C616.162,184.031 615.827,182.505 607.495,180.897C602.796,179.989 562.531,216.303 579.729,227.075C609.827,245.928 661.958,208.136 668.79,203.959C704.157,182.332 733.844,160.302 739.314,156.242C741.643,154.514 777.115,128.192 773.621,144.519C759.957,208.357 757.218,207.544 752.53,216.519C746.552,227.963 718.223,252.237 700.457,243.627C666.02,226.937 700.926,193.043 714.587,198.283C729.693,204.078 696.598,224.199 701.871,207.441C702.767,204.592 695.143,206.798 690.784,218.633C687.506,227.53 699.22,238.897 705.508,239.551C748.95,244.065 745.322,176.362 757.468,150.498C759.306,146.584 755.453,151.394 712.205,180.055C644.71,224.786 645.071,225.995 614.442,234.276C611.364,235.109 586.486,241.835 574.788,230.185C564.811,220.25 561.498,221.804 560.024,207.619C559.418,201.793 533.83,226.662 504.5,227.501C476.862,228.292 477.395,219.225 474.197,215.77C470.394,211.661 449.409,227.036 424.526,227.116C377.297,227.268 386.278,197.083 379.447,201.325C375.432,203.818 345.277,222.545 325.469,225.333C281.864,231.469 276.155,219.782 272.481,215.52C270.818,213.591 270.561,214.995 263.502,217.506C214.639,234.895 163.871,193.217 144.5,193.104C139.167,193.073 74.006,245.994 38.559,225.405C16.463,212.572 27.442,185.923 68.512,179.577C116.302,172.194 122.752,189.137 136.743,177.769C141.248,174.108 208.052,119.711 208.349,119.415C210.649,117.127 193.392,114.549 188.66,113.072C187.074,112.576 165.623,100.577 164.605,99.403C158.451,92.311 147.819,82.908 149.728,68.532C149.911,67.149 151.596,54.456 154.864,51.871C159.63,48.099 156.463,64.379 156.254,65.451C151.887,87.898 180.372,110.287 215.497,112.956C218.894,113.214 218.702,112.041 293.382,57.319C293.996,57.464 293.886,58.701 294.5,58.847C300.004,60.149 302.103,57.506 298.304,53.283ZM110.301,199.244C121.411,190.673 127.46,185.414 123.428,184.727C77.513,176.902 52.202,185.171 39.465,194.448C38.595,195.081 28.014,211.001 38.692,218.206C64.568,235.665 105.472,202.574 110.301,199.244ZM251.942,110.713L252.214,111.62C253.555,112.146 288.938,107.264 313.182,93C366.932,61.376 381.618,5.512 344.79,33.939C342.013,36.083 319.948,53.115 312.143,63.21C311.906,63.515 270.637,97.706 268.542,99.552C267.768,100.234 253.276,109.83 251.942,110.713ZM439.205,154.353C443.6,156.311 443.229,153.125 487.383,125.341C493.374,121.571 596.329,47.776 580.529,31.467C575.968,26.759 455.809,140.358 439.205,154.353ZM630.404,157.328C608.946,174.598 609.187,177.271 611.36,177.8C619.856,179.866 653.36,173.763 665.528,152.516C667.989,148.218 675.649,139.783 661.524,139.97C655.404,140.051 651.91,142.643 630.404,157.328Z" style="stroke:black;stroke-width:1.49px;stroke-linecap:butt;stroke-miterlimit:2;"/>
                    <path d="M392.402,88.38C393.131,87.923 399.081,84.196 402.482,84.628C404.301,84.86 407.988,90.709 408.132,91.551C410.033,102.63 374.348,110.715 392.402,88.38Z" style="stroke:black;stroke-width:1.49px;stroke-linecap:butt;stroke-miterlimit:2;"/>
                    <path d="M597.66,112.632C580.541,125.231 582.914,100.667 593.534,99.879C610.373,98.63 599.51,110.255 597.66,112.632Z" style="stroke:black;stroke-width:1.49px;stroke-linecap:butt;stroke-miterlimit:2;"/>
                    <path d="M298.304,53.283C302.103,57.506 300.004,60.149 294.5,58.847C293.886,58.701 293.996,57.464 293.382,57.319C295.022,55.974 296.663,54.628 298.304,53.283Z" style="stroke:black;stroke-width:1.49px;stroke-linecap:butt;stroke-miterlimit:2;"/>
                </g>
            </g>
            <g id="OF-THE" serif:id="OF THE" transform="matrix(0.623472,0,0,0.57209,-65.98325,1047.41112)">
                <g transform="matrix(0.754064,0,0,0.754064,458.480604,380.576122)">
                    <path d="M1425.043,1649.028C1419.885,1649.028 1415.112,1648.23 1410.724,1646.635C1406.336,1645.04 1402.525,1642.805 1399.29,1639.93C1396.055,1637.055 1393.539,1633.691 1391.743,1629.838C1389.947,1625.985 1389.049,1621.771 1389.049,1617.196C1389.049,1612.62 1389.947,1608.406 1391.743,1604.553C1393.539,1600.7 1396.057,1597.333 1399.297,1594.453C1402.536,1591.574 1406.344,1589.339 1410.719,1587.749C1415.094,1586.159 1419.865,1585.364 1425.031,1585.364C1430.197,1585.364 1434.962,1586.156 1439.327,1587.74C1443.691,1589.323 1447.489,1591.55 1450.721,1594.419C1453.952,1597.288 1456.467,1600.655 1458.263,1604.52C1460.06,1608.385 1460.959,1612.612 1460.959,1617.201C1460.959,1621.791 1460.06,1626.016 1458.263,1629.877C1456.467,1633.738 1453.952,1637.103 1450.721,1639.972C1447.489,1642.841 1443.691,1645.068 1439.327,1646.652C1434.962,1648.236 1430.201,1649.028 1425.043,1649.028ZM1425.031,1643.13C1429.133,1643.13 1432.929,1642.484 1436.418,1641.193C1439.908,1639.902 1442.947,1638.081 1445.536,1635.731C1448.125,1633.381 1450.14,1630.636 1451.581,1627.496C1453.021,1624.356 1453.741,1620.918 1453.741,1617.18C1453.741,1613.443 1453.023,1610.011 1451.587,1606.884C1450.15,1603.757 1448.137,1601.018 1445.546,1598.666C1442.955,1596.314 1439.914,1594.492 1436.422,1593.2C1432.93,1591.907 1429.133,1591.261 1425.031,1591.261C1420.929,1591.261 1417.128,1591.908 1413.627,1593.202C1410.127,1594.495 1407.078,1596.319 1404.48,1598.673C1401.883,1601.027 1399.865,1603.768 1398.425,1606.898C1396.986,1610.028 1396.266,1613.455 1396.266,1617.179C1396.266,1620.903 1396.985,1624.335 1398.423,1627.476C1399.861,1630.616 1401.877,1633.367 1404.471,1635.729C1407.066,1638.091 1410.115,1639.915 1413.62,1641.201C1417.126,1642.487 1420.929,1643.13 1425.031,1643.13Z" style="fill-rule:nonzero;stroke:black;stroke-width:0.78px;stroke-linecap:butt;stroke-miterlimit:2;"/>
                </g>
                <g transform="matrix(0.754064,0,0,0.754064,464.904927,380.576122)">
                    <path d="M1485.924,1616.174L1522.154,1616.174L1522.154,1621.921L1485.924,1621.921L1485.924,1616.174ZM1486.689,1648.455L1479.527,1648.455L1479.527,1585.936L1526.443,1585.936L1526.443,1591.681L1486.689,1591.681L1486.689,1648.455Z" style="fill-rule:nonzero;stroke:black;stroke-width:0.78px;stroke-linecap:butt;stroke-miterlimit:2;"/>
                </g>
                <g transform="matrix(0.754064,0,0,0.754064,405.66136,380.576122)">
                    <path d="M1701.98,1648.455L1701.98,1591.681L1677.891,1591.681L1677.891,1585.936L1733.231,1585.936L1733.231,1591.681L1709.143,1591.681L1709.143,1648.455L1701.98,1648.455Z" style="fill-rule:nonzero;stroke:black;stroke-width:0.78px;stroke-linecap:butt;stroke-miterlimit:2;"/>
                </g>
                <g transform="matrix(0.754064,0,0,0.754064,412.085683,380.576122)">
                    <path d="M1797.129,1585.936L1804.29,1585.936L1804.29,1648.455L1797.129,1648.455L1797.129,1585.936ZM1754.305,1648.455L1747.142,1648.455L1747.142,1585.936L1754.305,1585.936L1754.305,1648.455ZM1797.84,1619.578L1753.54,1619.578L1753.54,1613.831L1797.84,1613.831L1797.84,1619.578Z" style="fill-rule:nonzero;stroke:black;stroke-width:0.78px;stroke-linecap:butt;stroke-miterlimit:2;"/>
                </g>
                <g transform="matrix(0.754064,0,0,0.754064,418.510005,380.576122)">
                    <path d="M1835.438,1613.883L1871.613,1613.883L1871.613,1619.526L1835.438,1619.526L1835.438,1613.883ZM1836.148,1642.71L1877.314,1642.71L1877.314,1648.455L1828.986,1648.455L1828.986,1585.936L1875.902,1585.936L1875.902,1591.681L1836.148,1591.681L1836.148,1642.71Z" style="fill-rule:nonzero;stroke:black;stroke-width:0.78px;stroke-linecap:butt;stroke-miterlimit:2;"/>
                </g>
            </g>
            <g id="FIeld" transform="matrix(0.528673,0,0,0.454797,966.159866,1805.896214)">
                <g>
                    <path d="M749.23,181.047C771.362,153.51 863.814,89.403 898.723,68.861C920.299,56.164 939.395,56.588 940.528,63.493C946.669,100.927 846.963,157.136 838.428,160.241C810.691,170.331 803.657,171.253 800.516,171.665C783.784,173.859 783.736,174.905 772.066,187.02C764.527,194.846 763.542,193.371 755.749,200.784C713.94,240.554 714.326,244.427 714.832,249.49C716.343,264.628 762.789,245.452 766.643,243.86C813.074,224.69 860.522,189.324 856.134,201.341C855.32,203.569 833.382,214.163 831.337,215.151C818.543,221.329 732.5,274.991 710.833,257.094C701.449,249.343 699.393,241.115 706.716,226.485C704.804,224.808 702.892,227.803 691.159,238.13C690.409,238.79 636.358,277.107 621.756,249.376C615.072,236.683 629.02,221.038 619.333,227.134C568.698,258.994 550.892,261.597 537.57,248.437C534.498,245.402 535.394,236.246 535.083,235.735C531.657,230.107 483.403,267.091 454.422,254.675C429.698,244.082 431.247,239.717 432.661,222.48C432.909,219.449 431.306,221.242 428.5,222.5C398.542,235.933 400.1,239.527 368.463,248.369C354.699,252.215 340.22,244.716 339.835,244.203C329.233,230.072 333.021,224.277 333.992,222.791C342.257,210.146 414.179,153.794 428.494,154.545C447.711,155.554 383.026,200.07 380.838,201.899C366.178,214.152 365.322,212.733 350.733,224.762C336.315,236.649 346.447,246.03 369.49,242.427C385.485,239.925 438.503,211.855 439.362,210.413C454.775,184.555 506.32,143.481 536.181,156.993C546.955,161.868 529.841,212.296 471.513,207.292C456.321,205.989 443.389,235.545 445.147,239.635C458.298,270.23 538.508,227.828 541.289,223.366C552.83,204.844 559.717,201.222 584.052,178.056C604.448,158.64 604.284,158.617 616.947,146.96C703.418,67.362 710.696,64.13 720.601,59.732C759.276,42.56 733.723,91.733 725.099,102.146C693.915,139.798 683.813,143.923 655.353,163.295C616.397,189.81 599.756,180.693 568.087,216.134C549.665,236.75 551.03,237.667 549.433,239.442C534.137,256.445 572.602,247.817 584.244,242.012C623.512,222.431 633.436,212.501 636.954,208.981C659.793,186.129 714.196,159.03 737.5,159.473C763.156,159.961 745.293,176.34 749.23,181.047ZM857.732,115.727C840.854,128.319 836.565,130.374 819.989,145.968C806.774,158.4 781.042,172.165 804.399,166.17C844.414,155.9 853.401,147.871 856.775,144.857C859.965,142.008 862.27,145.406 901.141,115.032C941.039,83.855 941.201,57.747 927.613,63.786C903.762,74.386 890.023,91.686 857.732,115.727ZM499.634,174.607C485.934,186.502 471.22,200.865 471.309,201.537C471.726,204.711 508.877,206.972 531.52,176.514C532.513,175.179 546.424,149.006 514.189,165.014C512.94,165.634 504.51,169.821 499.634,174.607ZM603.28,184.642L604.464,184.66C607.918,182.742 684.766,153.891 724.144,97.227C735.629,80.7 739.965,59.828 734.473,61.056C716.961,64.971 706.772,88.355 639.13,150.074C636.23,152.72 603.447,182.632 603.133,183.42C602.76,184.354 603.229,184.218 603.28,184.642ZM639.774,236.679C622.839,263.26 649.196,252.975 665.314,247.002C686.84,239.025 685.994,237.483 703.086,222.094C704.179,221.11 703.44,220.523 715.946,208.955C718.98,206.149 760.298,167.93 743.539,165.282C733.201,163.648 679.037,187.795 639.774,236.679Z" style="stroke:black;stroke-width:1.49px;stroke-linecap:butt;stroke-miterlimit:2;"/>
                    <path d="M250.591,165.366C192.471,168.422 135.892,238.677 136.394,224.499C136.505,221.381 190.051,183.221 193.782,180.94C236.191,155.02 254.805,163.838 262.371,158.324C290.692,137.684 352.268,88.396 408.548,78.938C417.83,77.378 447.373,82.966 426.518,83.688C378.938,85.334 328.063,133.888 311.846,143.957C310.456,144.82 311.339,145.864 296.136,157.05C294.765,158.059 282.125,163.463 293.581,166.163C303.02,168.388 303.736,171.378 311.729,165.838C351.105,138.543 361.328,154.397 356.656,161.599C347.022,176.453 333.801,173.778 327.607,175.831C326.765,176.11 319.87,174.84 314.9,178.909C313.514,180.044 289.91,214.697 285.46,194.504C283.88,187.331 305.082,173.382 300.582,172.37C279.523,167.632 278.087,167.908 261.705,181.764C217.878,218.835 206.786,224.606 197.73,228.868C178.07,238.12 178.437,238.295 155.427,244.202C133.189,249.91 91.005,244.626 79.902,233.158C66.387,219.198 61.809,214.79 62.624,190.51C63.43,166.492 99.346,139.546 115.213,154.738C127.224,166.239 100.462,184.324 101.369,164.431C101.632,158.655 117.339,156.152 108.552,156.266C101.041,156.363 93.088,153.618 77.878,169.847C45.263,204.646 93.66,270.998 180.23,220.017C208.997,203.075 239.159,174.248 251.781,166.618C252.779,166.014 253.228,166.16 252.838,165.5C252.747,165.345 252.838,165.5 250.591,165.366ZM337.43,161.41C325.813,168.862 325.73,169.652 326.466,170.524C330.386,175.174 366.99,157.261 348.496,155.578C344.743,155.237 338.316,160.708 337.43,161.41Z" style="stroke:black;stroke-width:1.49px;stroke-linecap:butt;stroke-miterlimit:2;"/>
                    <path d="M148.522,111.5C149.02,106.859 151.827,80.74 180.695,62.833C270.467,7.148 308.213,85.963 411.442,64.205C456.885,54.627 455.662,49.468 459.621,50.136C471.312,52.11 438.96,65.5 417.449,69.212C383.606,75.051 383.568,75.591 349.449,70.961C342.503,70.018 333.609,68.811 264.449,49.688C247.149,44.904 220.355,54.726 216.821,56.974C171.913,85.544 149.204,122.005 167.707,134.129C201.443,156.233 288.78,85.322 297.854,76.859C307.37,67.982 314.171,73.752 309.634,75.725C299.628,80.075 301.149,82.014 292.438,88.417C242.983,124.761 235.976,127.21 230.368,129.17C217.407,133.701 195.52,152.353 168.518,142.441C149.157,135.334 149.525,118.296 148.522,111.5Z" style="stroke:black;stroke-width:1.49px;stroke-linecap:butt;stroke-miterlimit:2;"/>
                    <path d="M454.939,125.173C456.56,121.579 460.202,118.142 466.2,117.985C470.605,117.87 472.604,121.68 471.564,126.067C470.359,131.155 467.765,133.309 463.143,134.085C456.022,135.282 453.475,130.512 454.939,125.173Z" style="stroke:black;stroke-width:1.49px;stroke-linecap:butt;stroke-miterlimit:2;"/>
                    <path d="M724.298,212.241C732.926,218.522 724.113,218.863 723.999,219.589C723.9,220.214 724.536,220.838 724.375,221.45C723.95,223.064 718.263,220.192 724.298,212.241Z" style="stroke:black;stroke-width:1.49px;stroke-linecap:butt;stroke-miterlimit:2;"/>
                </g>
            </g>
        </g>
    </g>
</svg>
